<svg xmlns="http://www.w3.org/2000/svg" xmlns:xlink="http://www.w3.org/1999/xlink" width="384" zoomAndPan="magnify" viewBox="0 0 288 72" height="96" preserveAspectRatio="xMidYMid meet" version="1.2"><defs/><g id="8c00e617f2"><g style="fill:#8217a8;fill-opacity:1;"><g transform="translate(12.795291, 60.725093)"><path style="stroke:none" d="M 35.34375 -0.828125 C 35.519531 -0.609375 35.550781 -0.414062 35.4375 -0.25 C 35.332031 -0.0820312 35.132812 0 34.84375 0 L 25.3125 0 C 25.09375 0 24.925781 -0.0546875 24.8125 -0.171875 L 11.90625 -16.125 C 11.71875 -15.9375 11.300781 -15.484375 10.65625 -14.765625 C 10.007812 -14.046875 9.234375 -13.175781 8.328125 -12.15625 C 7.429688 -11.144531 6.5 -10.09375 5.53125 -9 C 4.570312 -7.90625 3.664062 -6.878906 2.8125 -5.921875 C 1.96875 -4.960938 1.285156 -4.1875 0.765625 -3.59375 C 0.253906 -3.007812 0 -2.71875 0 -2.71875 L 0 -43.8125 C 0 -44.144531 0.203125 -44.3125 0.609375 -44.3125 L 7.921875 -44.3125 C 8.285156 -44.3125 8.46875 -44.144531 8.46875 -43.8125 L 8.46875 -23.65625 L 25.140625 -44.140625 C 25.253906 -44.253906 25.421875 -44.3125 25.640625 -44.3125 L 34.671875 -44.3125 C 34.972656 -44.3125 35.175781 -44.21875 35.28125 -44.03125 C 35.394531 -43.851562 35.359375 -43.671875 35.171875 -43.484375 L 17.5625 -21.765625 Z M 35.34375 -0.828125 "/></g></g><g style="fill:#8217a8;fill-opacity:1;"><g transform="translate(50.069028, 60.725093)"><path style="stroke:none" d="M 25.484375 -22.046875 C 25.484375 -20.898438 25.082031 -19.921875 24.28125 -19.109375 C 23.488281 -18.296875 22.503906 -17.890625 21.328125 -17.890625 C 20.179688 -17.890625 19.203125 -18.296875 18.390625 -19.109375 C 17.578125 -19.921875 17.171875 -20.898438 17.171875 -22.046875 C 17.171875 -23.222656 17.578125 -24.21875 18.390625 -25.03125 C 19.203125 -25.84375 20.179688 -26.25 21.328125 -26.25 C 22.503906 -26.25 23.488281 -25.84375 24.28125 -25.03125 C 25.082031 -24.21875 25.484375 -23.222656 25.484375 -22.046875 Z M 42.65625 -22.21875 C 42.65625 -19.445312 42.207031 -16.738281 41.3125 -14.09375 C 40.425781 -11.457031 39.097656 -9.078125 37.328125 -6.953125 C 35.554688 -4.828125 33.34375 -3.132812 30.6875 -1.875 C 28.03125 -0.625 24.925781 0 21.375 0 C 17.800781 0 14.671875 -0.625 11.984375 -1.875 C 9.304688 -3.132812 7.082031 -4.828125 5.3125 -6.953125 C 3.539062 -9.078125 2.210938 -11.457031 1.328125 -14.09375 C 0.441406 -16.738281 0 -19.445312 0 -22.21875 C 0 -24.976562 0.441406 -27.671875 1.328125 -30.296875 C 2.210938 -32.921875 3.539062 -35.285156 5.3125 -37.390625 C 7.082031 -39.492188 9.304688 -41.171875 11.984375 -42.421875 C 14.671875 -43.679688 17.800781 -44.3125 21.375 -44.3125 C 24.925781 -44.3125 28.03125 -43.679688 30.6875 -42.421875 C 33.34375 -41.171875 35.554688 -39.492188 37.328125 -37.390625 C 39.097656 -35.285156 40.425781 -32.921875 41.3125 -30.296875 C 42.207031 -27.671875 42.65625 -24.976562 42.65625 -22.21875 Z M 34.34375 -22.046875 C 34.34375 -23.859375 34.066406 -25.617188 33.515625 -27.328125 C 32.960938 -29.046875 32.148438 -30.597656 31.078125 -31.984375 C 30.003906 -33.367188 28.65625 -34.46875 27.03125 -35.28125 C 25.40625 -36.09375 23.519531 -36.5 21.375 -36.5 C 19.195312 -36.5 17.296875 -36.09375 15.671875 -35.28125 C 14.046875 -34.46875 12.6875 -33.367188 11.59375 -31.984375 C 10.507812 -30.597656 9.695312 -29.046875 9.15625 -27.328125 C 8.625 -25.617188 8.359375 -23.859375 8.359375 -22.046875 C 8.359375 -20.273438 8.625 -18.539062 9.15625 -16.84375 C 9.695312 -15.144531 10.507812 -13.609375 11.59375 -12.234375 C 12.6875 -10.867188 14.046875 -9.78125 15.671875 -8.96875 C 17.296875 -8.15625 19.195312 -7.75 21.375 -7.75 C 23.519531 -7.75 25.40625 -8.15625 27.03125 -8.96875 C 28.65625 -9.78125 30.003906 -10.867188 31.078125 -12.234375 C 32.148438 -13.609375 32.960938 -15.144531 33.515625 -16.84375 C 34.066406 -18.539062 34.34375 -20.273438 34.34375 -22.046875 Z M 34.34375 -22.046875 "/></g><g transform="translate(94.819662, 60.725093)"><path style="stroke:none" d="M 23.921875 -8.25 C 24.328125 -8.25 24.53125 -8.066406 24.53125 -7.703125 L 24.53125 -0.5 C 24.53125 -0.164062 24.328125 0 23.921875 0 L 0.609375 0 C 0.203125 0 0 -0.164062 0 -0.5 L 0 -8.25 Z M 8.46875 -16.734375 L 0 -16.734375 L 0 -43.8125 C 0 -44.144531 0.203125 -44.3125 0.609375 -44.3125 L 7.921875 -44.3125 C 8.285156 -44.3125 8.46875 -44.144531 8.46875 -43.8125 Z M 8.46875 -16.734375 "/></g></g><g style="fill:#8217a8;fill-opacity:1;"><g transform="translate(120.628808, 60.725093)"><path style="stroke:none" d="M 25.484375 -22.046875 C 25.484375 -20.898438 25.082031 -19.921875 24.28125 -19.109375 C 23.488281 -18.296875 22.503906 -17.890625 21.328125 -17.890625 C 20.179688 -17.890625 19.203125 -18.296875 18.390625 -19.109375 C 17.578125 -19.921875 17.171875 -20.898438 17.171875 -22.046875 C 17.171875 -23.222656 17.578125 -24.21875 18.390625 -25.03125 C 19.203125 -25.84375 20.179688 -26.25 21.328125 -26.25 C 22.503906 -26.25 23.488281 -25.84375 24.28125 -25.03125 C 25.082031 -24.21875 25.484375 -23.222656 25.484375 -22.046875 Z M 42.65625 -22.21875 C 42.65625 -19.445312 42.207031 -16.738281 41.3125 -14.09375 C 40.425781 -11.457031 39.097656 -9.078125 37.328125 -6.953125 C 35.554688 -4.828125 33.34375 -3.132812 30.6875 -1.875 C 28.03125 -0.625 24.925781 0 21.375 0 C 17.800781 0 14.671875 -0.625 11.984375 -1.875 C 9.304688 -3.132812 7.082031 -4.828125 5.3125 -6.953125 C 3.539062 -9.078125 2.210938 -11.457031 1.328125 -14.09375 C 0.441406 -16.738281 0 -19.445312 0 -22.21875 C 0 -24.976562 0.441406 -27.671875 1.328125 -30.296875 C 2.210938 -32.921875 3.539062 -35.285156 5.3125 -37.390625 C 7.082031 -39.492188 9.304688 -41.171875 11.984375 -42.421875 C 14.671875 -43.679688 17.800781 -44.3125 21.375 -44.3125 C 24.925781 -44.3125 28.03125 -43.679688 30.6875 -42.421875 C 33.34375 -41.171875 35.554688 -39.492188 37.328125 -37.390625 C 39.097656 -35.285156 40.425781 -32.921875 41.3125 -30.296875 C 42.207031 -27.671875 42.65625 -24.976562 42.65625 -22.21875 Z M 34.34375 -22.046875 C 34.34375 -23.859375 34.066406 -25.617188 33.515625 -27.328125 C 32.960938 -29.046875 32.148438 -30.597656 31.078125 -31.984375 C 30.003906 -33.367188 28.65625 -34.46875 27.03125 -35.28125 C 25.40625 -36.09375 23.519531 -36.5 21.375 -36.5 C 19.195312 -36.5 17.296875 -36.09375 15.671875 -35.28125 C 14.046875 -34.46875 12.6875 -33.367188 11.59375 -31.984375 C 10.507812 -30.597656 9.695312 -29.046875 9.15625 -27.328125 C 8.625 -25.617188 8.359375 -23.859375 8.359375 -22.046875 C 8.359375 -20.273438 8.625 -18.539062 9.15625 -16.84375 C 9.695312 -15.144531 10.507812 -13.609375 11.59375 -12.234375 C 12.6875 -10.867188 14.046875 -9.78125 15.671875 -8.96875 C 17.296875 -8.15625 19.195312 -7.75 21.375 -7.75 C 23.519531 -7.75 25.40625 -8.15625 27.03125 -8.96875 C 28.65625 -9.78125 30.003906 -10.867188 31.078125 -12.234375 C 32.148438 -13.609375 32.960938 -15.144531 33.515625 -16.84375 C 34.066406 -18.539062 34.34375 -20.273438 34.34375 -22.046875 Z M 34.34375 -22.046875 "/></g><g transform="translate(165.379442, 60.725093)"><path style="stroke:none" d="M 8.09375 -22.484375 C 8.09375 -20.046875 8.625 -17.75 9.6875 -15.59375 C 10.757812 -13.4375 12.28125 -11.679688 14.25 -10.328125 C 16.226562 -8.984375 18.550781 -8.3125 21.21875 -8.3125 C 22.175781 -8.3125 23.207031 -8.445312 24.3125 -8.71875 C 25.425781 -9 26.460938 -9.378906 27.421875 -9.859375 L 9.140625 -28.140625 C 8.804688 -27.253906 8.546875 -26.328125 8.359375 -25.359375 C 8.179688 -24.398438 8.09375 -23.441406 8.09375 -22.484375 Z M 34.453125 -22.484375 C 34.453125 -24.960938 33.941406 -27.257812 32.921875 -29.375 C 31.910156 -31.5 30.425781 -33.21875 28.46875 -34.53125 C 26.507812 -35.84375 24.09375 -36.5 21.21875 -36.5 C 19.851562 -36.5 18.585938 -36.332031 17.421875 -36 C 16.253906 -35.664062 15.191406 -35.1875 14.234375 -34.5625 L 33.015625 -15.78125 C 33.453125 -16.738281 33.800781 -17.828125 34.0625 -19.046875 C 34.320312 -20.265625 34.453125 -21.410156 34.453125 -22.484375 Z M 42.875 -5.65625 C 43.207031 -5.425781 43.207031 -5.1875 42.875 -4.9375 L 38.109375 -0.109375 C 37.816406 0.078125 37.519531 0.078125 37.21875 -0.109375 L 33.234375 -4.15625 C 31.492188 -3.007812 29.597656 -2.113281 27.546875 -1.46875 C 25.503906 -0.820312 23.394531 -0.5 21.21875 -0.5 C 18.039062 -0.5 15.148438 -1.085938 12.546875 -2.265625 C 9.941406 -3.453125 7.707031 -5.066406 5.84375 -7.109375 C 3.976562 -9.160156 2.535156 -11.503906 1.515625 -14.140625 C 0.503906 -16.785156 0 -19.566406 0 -22.484375 C 0 -25.367188 0.488281 -28.117188 1.46875 -30.734375 C 2.445312 -33.359375 3.859375 -35.6875 5.703125 -37.71875 C 7.546875 -39.75 9.769531 -41.351562 12.375 -42.53125 C 14.976562 -43.71875 17.925781 -44.3125 21.21875 -44.3125 C 24.394531 -44.3125 27.273438 -43.71875 29.859375 -42.53125 C 32.441406 -41.351562 34.679688 -39.75 36.578125 -37.71875 C 38.484375 -35.6875 39.941406 -33.359375 40.953125 -30.734375 C 41.972656 -28.117188 42.484375 -25.367188 42.484375 -22.484375 C 42.484375 -20.347656 42.160156 -18.125 41.515625 -15.8125 C 40.867188 -13.507812 39.972656 -11.488281 38.828125 -9.75 Z M 42.875 -5.65625 "/></g></g><g style="fill:#f97019;fill-opacity:1;"><g transform="translate(210.643254, 60.725093)"><path style="stroke:none" d="M 7.96875 -3.875 C 7.96875 -2.800781 7.582031 -1.882812 6.8125 -1.125 C 6.039062 -0.375 5.082031 0 3.9375 0 C 2.863281 0 1.9375 -0.375 1.15625 -1.125 C 0.382812 -1.882812 0 -2.800781 0 -3.875 C 0 -4.945312 0.382812 -5.867188 1.15625 -6.640625 C 1.9375 -7.421875 2.863281 -7.8125 3.9375 -7.8125 C 5.082031 -7.8125 6.039062 -7.421875 6.8125 -6.640625 C 7.582031 -5.867188 7.96875 -4.945312 7.96875 -3.875 Z M 7.96875 -3.875 "/></g></g><g style="fill:#1cd1dd;fill-opacity:1;"><g transform="translate(219.018915, 60.725093)"><path style="stroke:none" d="M 34.78125 -0.671875 C 34.851562 -0.515625 34.832031 -0.363281 34.71875 -0.21875 C 34.613281 -0.0703125 34.46875 0 34.28125 0 L 26.640625 0 C 26.378906 0 26.210938 -0.109375 26.140625 -0.328125 L 17.390625 -25.03125 L 8.75 -0.328125 C 8.71875 -0.109375 8.535156 0 8.203125 0 L 0.609375 0 C 0.347656 0 0.171875 -0.0703125 0.078125 -0.21875 C -0.015625 -0.363281 -0.0195312 -0.515625 0.0625 -0.671875 L 16.84375 -43.984375 C 16.914062 -44.203125 17.097656 -44.3125 17.390625 -44.3125 C 17.679688 -44.3125 17.867188 -44.203125 17.953125 -43.984375 Z M 34.78125 -0.671875 "/></g></g><g style="fill:#1cd1dd;fill-opacity:1;"><g transform="translate(255.572642, 60.725093)"><path style="stroke:none" d="M 18.0625 -7.59375 C 18.46875 -7.59375 18.671875 -7.425781 18.671875 -7.09375 L 18.671875 -0.5 C 18.671875 -0.164062 18.46875 0 18.0625 0 L 0.609375 0 C 0.203125 0 0 -0.164062 0 -0.5 L 0 -7.09375 C 0 -7.425781 0.203125 -7.59375 0.609375 -7.59375 L 5.15625 -7.59375 L 5.15625 -44.3125 L 13.625 -44.3125 L 13.625 -7.59375 Z M 18.0625 -7.59375 "/></g></g></g></svg>